0
SECTION
2
HEADER
9
$INSUNITS
70
4
9
$ACADVER
1
AC1014
9
$HANDSEED
5
FFFF
0
ENDSEC
0
SECTION
2
TABLES
0
TABLE
2
VPORT
5
8
100
AcDbSymbolTable
0
ENDTAB
0
TABLE
2
LTYPE
5
5
100
AcDbSymbolTable
0
LTYPE
5
14
100
AcDbSymbolTableRecord
100
AcDbLinetypeTableRecord
2
BYBLOCK
70
0
0
LTYPE
5
15
100
AcDbSymbolTableRecord
100
AcDbLinetypeTableRecord
2
BYLAYER
70
0
0
LTYPE
5
16
100
AcDbSymbolTableRecord
100
AcDbLinetypeTableRecord
2
DASHED
70
0
3
Dashed __ __ __ __ __ __ __ __ __ __ __ __ __ _
72
65
73
2
40
0.75
49
0.5
74
0
49
-0.25
74
0
0
ENDTAB
0
TABLE
2
LAYER
5
2
100
AcDbSymbolTable
70
2
0
LAYER
5
50
100
AcDbSymbolTableRecord
100
AcDbLayerTableRecord
2
0
70
0
62
7
6
CONTINUOUS
0
ENDTAB
0
TABLE
2
STYLE
5
3
100
AcDbSymbolTable
70
1
0
STYLE
5
11
100
AcDbSymbolTableRecord
100
AcDbTextStyleTableRecord
2
STANDARD
70
0
0
ENDTAB
0
TABLE
2
VIEW
5
6
100
AcDbSymbolTable
70
0
0
ENDTAB
0
TABLE
2
UCS
5
7
100
AcDbSymbolTable
70
0
0
ENDTAB
0
TABLE
2
APPID
5
9
100
AcDbSymbolTable
70
2
0
APPID
5
12
100
AcDbSymbolTableRecord
100
AcDbRegAppTableRecord
2
ACAD
70
0
0
ENDTAB
0
TABLE
2
DIMSTYLE
5
A
100
AcDbSymbolTable
70
1
0
ENDTAB
0
TABLE
2
BLOCK_RECORD
5
1
100
AcDbSymbolTable
70
1
0
BLOCK_RECORD
5
1F
100
AcDbSymbolTableRecord
100
AcDbBlockTableRecord
2
*MODEL_SPACE
0
BLOCK_RECORD
5
1B
100
AcDbSymbolTableRecord
100
AcDbBlockTableRecord
2
*PAPER_SPACE
0
ENDTAB
0
ENDSEC
0
SECTION
2
BLOCKS
0
BLOCK
5
20
100
AcDbEntity
100
AcDbBlockBegin
2
*MODEL_SPACE
0
ENDBLK
5
21
100
AcDbEntity
100
AcDbBlockEnd
0
BLOCK
5
1C
100
AcDbEntity
100
AcDbBlockBegin
2
*PAPER_SPACE
0
ENDBLK
5
1D
100
AcDbEntity
100
AcDbBlockEnd
0
ENDSEC
0
SECTION
2
ENTITIES
0
POINT
5
100
100
AcDbEntity
8
0
100
AcDbPoint
10
14.2050411328851
20
66.390924683813225
30
0
0
LWPOLYLINE
5
101
100
AcDbEntity
8
0
100
AcDbPolyline
90
18
70
1
43
0.0
10
4.7873876383177461
20
109.59834607471898
10
4.787387638317222
20
102.83569515327663
42
-0.074373578333416832
10
-0.55682595142901303
20
76.711640169983326
42
0.17694282920705631
10
-0.55682595142904689
20
71.106683794367981
42
-0.07437357833341951
10
4.7873876383172487
20
44.982628811073795
10
4.7873876383177461
20
8.6450999287003683
42
0.3451725459735327
10
11.189122587180407
20
3.6279271605657826
10
48.564979017954215
20
3.6636075182894601
42
0.34307047727777845
10
54.970636505129562
20
8.6450999287003327
10
54.970636505130052
20
44.543048842305517
42
-0.074593374744808663
10
60.341922787298223
20
70.741109513425471
42
0.17739371879672292
10
60.341922787298202
20
76.385742320578004
42
-0.074593374744807664
10
54.970636505130024
20
102.58380299169836
10
54.97063650512959
20
109.59834607471826
42
-0.04516632395178969
10
59.842788229811347
20
138.57545548813991
42
0.48886472036516798
10
54.970636505129391
20
144.83505111170319
10
4.7873876383177461
20
144.8348914104846
42
0.49152629287228516
10
-0.073810480520022925
20
138.53372924424201
42
-0.045100013036681152
0
CIRCLE
5
102
100
AcDbEntity
8
0
100
AcDbCircle
10
4.3873878037206282
20
139.90916028463104
30
-8.8817841970012507e-15
40
2.5499999999999918
210
0
220
0
230
1
0
CIRCLE
5
103
100
AcDbEntity
8
0
100
AcDbCircle
10
55.187450738144896
20
139.90916028463096
30
-8.8817841970012507e-15
40
2.5500000000000096
210
0
220
0
230
1
0
CIRCLE
5
104
100
AcDbEntity
8
0
100
AcDbCircle
10
57.310593469453153
20
73.897804228381077
30
-8.8817841970012507e-15
40
2.5500000000000012
210
0
220
0
230
1
0
CIRCLE
5
105
100
AcDbEntity
8
0
100
AcDbCircle
10
50.254546147663035
20
8.3206398421854644
30
-8.8817841970012507e-15
40
2.5500000000000007
210
0
220
0
230
1
0
CIRCLE
5
106
100
AcDbEntity
8
0
100
AcDbCircle
10
10.035398157724984
20
8.3742680966418703
30
-8.8817841970012507e-15
40
2.5500000000000096
210
0
220
0
230
1
0
CIRCLE
5
107
100
AcDbEntity
8
0
100
AcDbCircle
10
2.7109220983841098
20
73.897804228381148
30
-8.8817841970012507e-15
40
2.5500000000000007
210
0
220
0
230
1
0
LWPOLYLINE
5
108
100
AcDbEntity
8
0
100
AcDbPolyline
90
4
70
1
43
0.0
10
12.205041132885109
20
74.390924683813239
10
12.205041132885082
20
58.390924683813239
42
0.99999999999999989
10
16.2050411328851
20
58.390924683813239
10
16.20504113288511
20
74.390924683813239
42
0.99999999999999989
0
ENDSEC
0
SECTION
2
OBJECTS
0
DICTIONARY
5
C
100
AcDbDictionary
3
ACAD_GROUP
350
D
3
ACAD_MLINESTYLE
350
17
0
DICTIONARY
5
D
100
AcDbDictionary
0
DICTIONARY
5
1A
330
C
100
AcDbDictionary
0
DICTIONARY
5
17
100
AcDbDictionary
0
ENDSEC
0
EOF
